<?xml version="1.0" standalone="no"?>
<!DOCTYPE svg PUBLIC "-//W3C//DTD SVG 20010904//EN"
 "http://www.w3.org/TR/2001/REC-SVG-20010904/DTD/svg10.dtd">
<svg version="1.0" xmlns="http://www.w3.org/2000/svg"
 width="256.000000pt" height="256.000000pt" viewBox="0 0 256.000000 256.000000"
 preserveAspectRatio="xMidYMid meet">
<metadata>
Created by potrace 1.11, written by Peter Selinger 2001-2013
</metadata>
<g transform="translate(0.000000,256.000000) scale(0.100000,-0.100000)"
fill="#000000" stroke="none">
<path d="M145 2448 c-42 -32 -103 -133 -125 -206 -53 -171 1 -281 165 -335
133 -44 430 -97 545 -97 57 0 58 -16 1 -24 -74 -10 -164 -60 -236 -133 -36
-35 -65 -72 -65 -83 0 -18 42 -37 122 -54 l28 -6 -44 -83 c-184 -344 -117
-758 167 -1024 l65 -61 -24 -48 c-19 -38 -24 -61 -22 -104 3 -53 4 -56 43 -75
35 -18 60 -20 205 -20 180 1 253 16 265 56 9 28 85 27 103 -2 7 -11 28 -27 45
-34 46 -19 256 -29 352 -17 68 9 83 15 103 38 20 23 23 34 17 73 -4 25 -17 67
-30 92 l-23 47 65 63 c117 116 183 223 230 376 23 77 26 106 27 233 1 120 -3
158 -21 220 -24 83 -59 163 -98 227 l-26 42 28 7 c53 11 123 36 128 44 7 12
-65 100 -112 138 -57 44 -130 79 -185 87 -27 4 -48 10 -48 14 0 4 57 12 128
19 240 23 489 84 557 137 42 31 73 89 81 148 17 122 -110 367 -190 367 -41 0
-49 -35 -36 -158 6 -58 8 -107 5 -110 -13 -14 -42 19 -80 90 -50 95 -62 108
-91 108 -37 0 -47 -39 -39 -147 7 -106 -1 -116 -41 -48 -33 58 -68 85 -109 85
-38 0 -45 -7 -86 -88 -55 -110 -134 -158 -307 -186 -74 -12 -97 -12 -152 0
-83 17 -217 17 -300 0 -47 -10 -83 -11 -128 -5 -198 28 -278 77 -345 210 -29
59 -35 64 -68 67 -43 4 -76 -20 -116 -83 -15 -25 -31 -45 -36 -45 -4 0 -7 47
-6 105 2 109 -6 135 -40 135 -24 0 -54 -35 -86 -100 -28 -56 -62 -100 -77
-100 -5 0 -6 48 -2 109 8 131 3 161 -30 161 -13 0 -36 -10 -51 -22z m1015
-830 c76 -52 98 -125 61 -202 -32 -66 -76 -90 -153 -84 -56 4 -64 8 -98 45
-52 55 -60 107 -28 171 12 26 38 57 57 69 46 31 116 31 161 1z m401 -1 c76
-51 98 -130 59 -206 -26 -52 -75 -81 -136 -81 -135 0 -206 149 -122 255 45 57
139 72 199 32z"/>
<path d="M1087 1492 c-20 -22 -22 -63 -5 -80 17 -17 64 -15 82 4 21 21 20 57
-2 77 -24 22 -55 21 -75 -1z"/>
<path d="M1407 1492 c-33 -37 -13 -92 33 -92 54 0 80 58 42 93 -24 22 -55 21
-75 -1z"/>
</g>
</svg>
